<?xml version="1.0" encoding="UTF-8" standalone="no"?>
<!-- Generator: Adobe Illustrator 26.5.0, SVG Export Plug-In . SVG Version: 6.00 Build 0)  -->

<svg
   version="1.1"
   id="Layer_1"
   x="0px"
   y="0px"
   viewBox="0 0 1146.1 912.5"
   style="enable-background:new 0 0 1146.1 912.5;"
   xml:space="preserve"
   sodipodi:docname="canada.svg"
   inkscape:version="1.2.1 (9c6d41e4, 2022-07-14)"
   xmlns:inkscape="http://www.inkscape.org/namespaces/inkscape"
   xmlns:sodipodi="http://sodipodi.sourceforge.net/DTD/sodipodi-0.dtd"
   xmlns="http://www.w3.org/2000/svg"
   xmlns:svg="http://www.w3.org/2000/svg"><defs
   id="defs764" /><sodipodi:namedview
   id="namedview762"
   pagecolor="#ffffff"
   bordercolor="#000000"
   borderopacity="0.25"
   inkscape:showpageshadow="2"
   inkscape:pageopacity="0.0"
   inkscape:pagecheckerboard="0"
   inkscape:deskcolor="#d1d1d1"
   showgrid="false"
   inkscape:zoom="0.71525029"
   inkscape:cx="722.12483"
   inkscape:cy="471.16373"
   inkscape:window-width="1280"
   inkscape:window-height="800"
   inkscape:window-x="0"
   inkscape:window-y="0"
   inkscape:window-maximized="0"
   inkscape:current-layer="Layer_1" />
<style
   type="text/css"
   id="style400">
	.st0{display:none;fill:#A9A9D9;}
	.st1{fill:#FFFFFF;stroke:#000000;stroke-width:3;stroke-miterlimit:10;}
	.st2{fill:#88AEFF;}
	.st3{fill:#FF7E7E;}
	.st4{fill:#A8FFBE;}
	.st5{fill:#FFB57E;}
	.st6{fill:#D6BEFF;}
	.st7{fill:#FFE57E;}
	.st8{fill:#FFFFFF;}
	.st9{fill:none;stroke:#000000;stroke-width:2;stroke-miterlimit:10;}
	.st10{fill:none;}
	.st11{font-family:'LucidaSans-Demi';}
	.st12{font-size:18px;}
	.st13{font-size:24px;}
	.st14{font-size:21px;}
	.st15{font-size:12px;}
	.st16{font-size:72px;}
</style>
<rect
   x="-43.8"
   y="-7.1"
   class="st0"
   width="1920"
   height="1080"
   id="rect402" />

<g
   id="Layer_4">
	<path
   class="st2"
   d="M614.1,786.3h216.1c1.7,0,3,1.3,3,3v26c0,1.7-1.3,3-3,3H614.1c-1.7,0-3-1.3-3-3v-26   C611.1,787.6,612.4,786.3,614.1,786.3z"
   id="path461" />
	<path
   class="st3"
   d="M614.1,658.3h216.1c1.7,0,3,1.3,3,3v26c0,1.7-1.3,3-3,3H614.1c-1.7,0-3-1.3-3-3v-26   C611.1,659.6,612.4,658.3,614.1,658.3z"
   id="path463" />
	<path
   class="st4"
   d="M614.1,754.3h216.1c1.7,0,3,1.3,3,3v26c0,1.7-1.3,3-3,3H614.1c-1.7,0-3-1.3-3-3v-26   C611.1,755.6,612.4,754.3,614.1,754.3z"
   id="path465" />
	<path
   class="st5"
   d="M614.1,690.3h216.1c1.7,0,3,1.3,3,3v26c0,1.7-1.3,3-3,3H614.1c-1.7,0-3-1.3-3-3v-26   C611.1,691.6,612.4,690.3,614.1,690.3z"
   id="path467" />
	<path
   class="st6"
   d="M614.1,818.3h216.1c1.7,0,3,1.3,3,3v26c0,1.7-1.3,3-3,3H614.1c-1.7,0-3-1.3-3-3v-26   C611.1,819.6,612.4,818.3,614.1,818.3z"
   id="path469" />
	<path
   class="st7"
   d="M614.1,722.3h216.1c1.7,0,3,1.3,3,3v26c0,1.7-1.3,3-3,3H614.1c-1.7,0-3-1.3-3-3v-26   C611.1,723.6,612.4,722.3,614.1,722.3z"
   id="path471" />
	<path
   class="st8"
   d="M614.1,850.3h216.1c1.7,0,3,1.3,3,3v26c0,1.7-1.3,3-3,3H614.1c-1.7,0-3-1.3-3-3v-26   C611.1,851.6,612.4,850.3,614.1,850.3z"
   id="path473" />
	<path
   class="st9"
   d="M614.1,658.3h216.1c1.7,0,3,1.5,3,3.5v217c0,2-1.3,3.5-3,3.5H614.1c-1.7,0-3-1.5-3-3.5v-217   C611.1,659.8,612.4,658.3,614.1,658.3z"
   id="path475" />
	<path
   class="st10"
   d="M621.6,665.9h90.2c1.7,0,3,1.3,3,3v10.6c0,1.7-1.3,3-3,3h-90.2c-1.7,0-3-1.3-3-3v-10.6   C618.6,667.2,619.9,665.9,621.6,665.9z"
   id="path477" />
	<text
   transform="matrix(1 0 0 1 618.6051 680.7761)"
   class="st11 st12"
   id="text479">Lived here </text>
	<path
   class="st10"
   d="M622.2,698.1h117.9c1.7,0,3,1.3,3,3v10.6c0,1.7-1.3,3-3,3H622.2c-1.7,0-3-1.3-3-3v-10.6   C619.2,699.4,620.5,698.1,622.2,698.1z"
   id="path481" />
	<text
   transform="matrix(1 0 0 1 619.1549 712.8942)"
   class="st11 st12"
   id="text483">Stayed here </text>
	<path
   class="st10"
   d="M622.6,730.1h117.9c1.7,0,3,1.3,3,3v10.6c0,1.7-1.3,3-3,3H622.6c-1.7,0-3-1.3-3-3v-10.6   C619.6,731.4,620.9,730.1,622.6,730.1z"
   id="path485" />
	<text
   transform="matrix(1 0 0 1 619.6115 744.8932)"
   class="st11 st12"
   id="text487">Visited here </text>
	<path
   class="st10"
   d="M621.6,762.1h117.9c1.7,0,3,1.3,3,3v10.6c0,1.7-1.3,3-3,3H621.6c-1.7,0-3-1.3-3-3v-10.6   C618.6,763.4,619.9,762.1,621.6,762.1z"
   id="path489" />
	<text
   transform="matrix(1 0 0 1 618.6115 776.8934)"
   class="st11 st12"
   id="text491">Alighted here </text>
	<path
   class="st10"
   d="M622.6,794.1h117.9c1.7,0,3,1.3,3,3v10.6c0,1.7-1.3,3-3,3H622.6c-1.7,0-3-1.3-3-3v-10.6   C619.6,795.4,620.9,794.1,622.6,794.1z"
   id="path493" />
	<text
   transform="matrix(1 0 0 1 619.6115 808.8934)"
   class="st11 st12"
   id="text495">Passed here </text>
	<path
   class="st10"
   d="M622.6,826.1h165.5c1.7,0,3,1.3,3,3v10.6c0,1.7-1.3,3-3,3H622.6c-1.7,0-3-1.3-3-3v-10.6   C619.6,827.4,620.9,826.1,622.6,826.1z"
   id="path497" />
	<text
   transform="matrix(1 0 0 1 619.6115 840.8934)"
   class="st11 st12"
   id="text499">Want to be here</text>
	<path
   class="st10"
   d="M766.5,666.5h53.4c1.7,0,3,1.3,3,3v10.6c0,1.7-1.3,3-3,3h-53.4c-1.7,0-3-1.3-3-3v-10.6   C763.5,667.8,764.8,666.5,766.5,666.5z"
   id="path501" />
	<text
   transform="matrix(1 0 0 1 790.0876 681.3134)"
   class="st11 st12"
   id="text503">5 pt </text>
	<path
   class="st10"
   d="M766.5,697.5h53.4c1.7,0,3,1.3,3,3v10.6c0,1.7-1.3,3-3,3h-53.4c-1.7,0-3-1.3-3-3v-10.6   C763.5,698.8,764.8,697.5,766.5,697.5z"
   id="path505" />
	<text
   transform="matrix(1 0 0 1 790.1151 712.3134)"
   class="st11 st12"
   id="text507">4 pt </text>
	<path
   class="st10"
   d="M767.5,729.5h53.4c1.7,0,3,1.3,3,3v10.6c0,1.7-1.3,3-3,3h-53.4c-1.7,0-3-1.3-3-3v-10.6   C764.5,730.8,765.8,729.5,767.5,729.5z"
   id="path509" />
	<text
   transform="matrix(1 0 0 1 791.1151 744.3134)"
   class="st11 st12"
   id="text511">3 pt </text>
	<path
   class="st10"
   d="M767.5,761.5h53.4c1.7,0,3,1.3,3,3v10.6c0,1.7-1.3,3-3,3h-53.4c-1.7,0-3-1.3-3-3v-10.6   C764.5,762.8,765.8,761.5,767.5,761.5z"
   id="path513" />
	<text
   transform="matrix(1 0 0 1 791.1151 776.3134)"
   class="st11 st12"
   id="text515">2 pt </text>
	<path
   class="st10"
   d="M767.5,793.5h53.4c1.7,0,3,1.3,3,3v10.6c0,1.7-1.3,3-3,3h-53.4c-1.7,0-3-1.3-3-3v-10.6   C764.5,794.8,765.8,793.5,767.5,793.5z"
   id="path517" />
	<text
   transform="matrix(1 0 0 1 791.1151 808.3134)"
   class="st11 st12"
   id="text519">1 pt </text>
	<path
   class="st10"
   d="M767.5,825.5h53.4c1.7,0,3,1.3,3,3v10.6c0,1.7-1.3,3-3,3h-53.4c-1.7,0-3-1.3-3-3v-10.6   C764.5,826.8,765.8,825.5,767.5,825.5z"
   id="path521" />
	<text
   transform="matrix(1 0 0 1 791.1151 840.3134)"
   class="st11 st12"
   id="text523">0 pt </text>
	<path
   class="st10"
   d="M623,856h165.5c1.7,0,3,1.3,3,3v10.6c0,1.7-1.3,3-3,3H623c-1.7,0-3-1.3-3-3V859C620,857.3,621.3,856,623,856z   "
   id="path525" />
	<text
   transform="matrix(1 0 0 1 620.0115 870.7708)"
   class="st11 st12"
   id="text527">Never been here </text>
	<path
   class="st10"
   d="M767.9,855.4h53.4c1.7,0,3,1.3,3,3V869c0,1.7-1.3,3-3,3h-53.4c-1.7,0-3-1.3-3-3v-10.6   C764.9,856.7,766.2,855.4,767.9,855.4z"
   id="path529" />
	<text
   transform="matrix(1 0 0 1 791.5151 870.1907)"
   class="st11 st12"
   id="text531">0 pt </text>
</g>

<text
   class="st11 st16"
   id="text759"
   x="304.34143"
   y="99.191322">Canada Level 0</text>
<rect
   style="fill:none;stroke:#000000;stroke-width:3.06666;stroke-linecap:round;stroke-linejoin:round;stroke-dasharray:none;stroke-opacity:1;paint-order:stroke markers fill"
   id="rect1183"
   width="148.13322"
   height="285.14819"
   x="26.597458"
   y="278.25763" /><rect
   style="fill:none;stroke:#000000;stroke-width:3.06666;stroke-linecap:round;stroke-linejoin:round;stroke-dasharray:none;stroke-opacity:1;paint-order:stroke markers fill"
   id="rect1183-1"
   width="148.13322"
   height="285.14819"
   x="356.55188"
   y="276.85953" /><rect
   style="fill:none;stroke:#000000;stroke-width:3.06666;stroke-linecap:round;stroke-linejoin:round;stroke-dasharray:none;stroke-opacity:1;paint-order:stroke markers fill"
   id="rect1183-3"
   width="148.13322"
   height="285.14819"
   x="192.97278"
   y="278.2576" /><rect
   style="fill:none;stroke:#000000;stroke-width:3.14773;stroke-linecap:round;stroke-linejoin:round;stroke-dasharray:none;stroke-opacity:1;paint-order:stroke markers fill"
   id="rect1183-8"
   width="279.47467"
   height="159.23705"
   x="514.57904"
   y="399.9339" /><rect
   style="fill:none;stroke:#000000;stroke-width:3.62666;stroke-linecap:round;stroke-linejoin:round;stroke-dasharray:none;stroke-opacity:1;paint-order:stroke markers fill"
   id="rect1183-8-4"
   width="255.22784"
   height="231.45995"
   x="800.03339"
   y="319.08286" /></svg>
